<svg id="Capa_1" enable-background="new 0 0 512 512" height="512" viewBox="0 0 512 512" width="512" xmlns="http://www.w3.org/2000/svg"><g><circle cx="256" cy="256" fill="#ffe48d" r="256"/><path d="m256 162.975v99.65h-95.999l-83.837 95.915 151.942 151.942c9.163.993 18.467 1.518 27.894 1.518 141.385 0 256-114.615 256-256 0-9.427-.525-18.731-1.518-27.894l-151.942-151.942z" fill="#fd5"/><g><g><g><path d="m365.972 146.033h70.013v30h-70.013z" fill="#00c8c8" transform="matrix(.707 .707 -.707 .707 231.312 -236.369)"/><path d="m365.618 146.886-49.506-49.506 21.213-21.214 49.507 49.507-2.47 18.744z" fill="#ff5f96"/></g><g><path d="m328.106 183.899h70.013v30h-70.013z" fill="#00c8c8" transform="matrix(.707 .707 -.707 .707 246.996 -198.503)"/><path d="m327.752 184.752-49.506-49.506 21.213-21.214 49.507 49.507-2.47 18.744z" fill="#ff5f96"/></g><g><path d="m291.704 218.229h60.012v30h-60.012z" fill="#00c8c8" transform="matrix(.707 .707 -.707 .707 259.145 -159.172)"/><path d="m289.886 222.618-42.435-42.435 21.214-21.213 42.435 42.435-2.47 18.744z" fill="#ff5f96"/></g></g><g><g><path d="m206.758 303.176h60.012v30h-60.012z" fill="#d72878" transform="matrix(.707 .707 -.707 .707 294.331 -74.226)"/><path d="m204.94 307.565-42.435-42.435 21.213-21.213 42.435 42.435-2.469 18.743z" fill="#96ebe6"/></g><g><path d="m167.428 344.577h70.013v30h-70.013z" fill="#d72878" transform="matrix(.707 .707 -.707 .707 313.551 -37.825)"/><path d="m167.074 345.431-49.507-49.507 21.214-21.213 49.506 49.506-2.469 18.744z" fill="#96ebe6"/></g><g><path d="m129.562 382.443h70.013v30h-70.013z" fill="#d72878" transform="matrix(.707 .707 -.707 .707 329.236 .041)"/><path d="m129.208 383.297-49.507-49.507 21.214-21.213 49.506 49.506-2.469 18.744z" fill="#96ebe6"/></g></g><g fill="#4855b7"><path d="m271 241-6.329 13.523-23.671 16.477h-41.759c-22.916 0-44.461 8.925-60.665 25.129l-62.412 62.411-21.213-21.213 62.411-62.411c21.87-21.87 50.949-33.915 81.878-33.915h71.76z"/><path d="m271 241h41.759c22.916 0 44.461-8.924 60.665-25.129l62.411-62.411 21.213 21.213-62.411 62.411c-21.87 21.871-50.949 33.916-81.878 33.916h-71.759z"/></g><g><path d="m271 241-13.523 6.329-16.477 23.671v41.759c0 22.916-8.925 44.461-25.129 60.665l-62.411 62.411 21.213 21.213 62.411-62.411c21.87-21.87 33.915-50.949 33.915-81.878v-71.759z" fill="#293891"/><path d="m271 241v-41.759c0-22.916 8.924-44.461 25.129-60.665l62.411-62.411-21.213-21.213-62.411 62.411c-21.871 21.87-33.916 50.949-33.916 81.878v71.759z" fill="#7584f2"/></g></g></g></svg>